<svg width="34" height="84" viewBox="0 0 34 84" fill="none" xmlns="http://www.w3.org/2000/svg">
<path fill-rule="evenodd" clip-rule="evenodd" d="M12.5716 7.80346C12.729 8.21791 12.4273 8.22075 12.0577 8.02071L11.6881 7.82066L11.9368 8.07182C12.4598 8.63458 12.5085 8.7921 12.3816 9.6296C12.2611 10.4822 11.9099 10.9157 11.6014 10.5652C11.4985 10.4483 11.4078 10.4866 11.1695 10.7656C11.0241 10.9695 10.784 11.1601 10.6567 11.1961C10.029 11.3546 9.76908 11.6248 9.59571 12.2682C9.50552 12.6448 9.48156 13.1359 9.56462 13.3324C9.71391 13.6434 9.63367 13.7485 9.08259 14.0884C8.7152 14.315 8.33441 14.6363 8.21928 14.8275C8.10415 15.0187 7.90067 15.2116 7.79487 15.2563C7.58329 15.3458 6.11532 16.8036 5.41532 17.634C5.18567 17.8914 4.63863 18.283 4.17651 18.4962C2.59132 19.2554 1.59729 19.8538 1.31529 20.2403L1.03329 20.6267L1.40302 20.3635C2.35639 19.7111 3.57013 19.1267 3.53462 19.3376C3.51889 19.469 3.29391 19.6532 3.03699 19.7618C2.44756 20.011 1.53253 20.7541 1.6092 20.9355C1.6731 21.0866 4.87774 19.6071 5.05566 19.3538C5.10567 19.2613 5.1853 19.2811 5.21724 19.3567C5.25558 19.4474 5.18173 19.5677 5.0306 19.6316C4.89458 19.6891 4.83818 19.7664 4.90269 19.7925C4.98231 19.8123 5.24157 19.6671 5.49678 19.4701C5.76071 19.2516 6.04148 19.1151 6.10598 19.1413C6.19199 19.1762 6.33207 19.1704 6.42275 19.1321C6.53493 19.1025 6.80869 19.0758 7.05861 19.077C7.63169 19.0842 10.6769 18.4916 11.2058 18.2679C11.4325 18.1721 11.8057 18.0856 12.0707 18.0804C12.3143 18.0665 12.7066 18.0254 12.9461 17.9598C13.1768 17.9157 13.4849 17.9279 13.6139 17.9803C13.7923 18.0652 13.7987 18.0803 13.6307 18.0623C13.5209 18.0552 13.4064 18.1215 13.3842 18.2377C13.3708 18.3324 13.4179 18.4016 13.5086 18.3633C13.5841 18.3313 13.7847 18.3 13.9614 18.2966C14.1683 18.2803 14.2072 18.2461 14.0806 18.1571C13.8551 18.003 13.9545 17.9432 14.3939 17.9712C14.5682 18.0044 14.9088 17.9673 15.1762 17.9255C15.4221 17.875 15.6546 17.9192 15.6993 18.025C15.7376 18.1157 15.9741 18.2117 16.2305 18.228C16.4804 18.2292 16.6228 18.1868 16.5304 18.1368C16.0882 17.8072 18.2573 17.9234 19.4254 18.2847C19.8578 18.4225 20.0583 18.3912 20.2165 18.2174C20.3293 18.0629 20.5257 17.9798 20.7001 18.013C20.8896 18.0398 20.9087 18.0851 20.7878 18.1362C20.682 18.181 20.6233 18.2949 20.6616 18.3855C20.7064 18.4913 20.8854 18.4513 21.1534 18.2845C21.5533 18.0086 21.9689 18.0645 21.6788 18.3474C21.5532 18.4718 21.566 18.502 21.7171 18.4381C21.8293 18.4085 22.2385 18.4493 22.6214 18.5546C23.1724 18.678 23.334 18.6809 23.3759 18.4851C23.4184 18.1642 23.8491 18.2138 23.8583 18.5305C23.8728 18.6491 23.9907 18.7596 24.1308 18.7538C24.5359 18.7429 24.7196 18.6296 24.5435 18.508C24.2408 18.2976 24.6372 18.3081 25.1532 18.5175C25.4392 18.646 25.7513 18.7101 25.8571 18.6653C25.9629 18.6206 26.1285 18.6753 26.2249 18.777C26.3365 18.8724 26.6916 18.9538 27.045 18.9469C27.3833 18.9465 27.6954 19.0105 27.7273 19.086C27.8231 19.3127 27.1309 19.4451 26.8258 19.2712C26.6625 19.1799 26.4754 19.1165 26.4149 19.1421C26.3544 19.1676 25.9476 19.0902 25.5065 18.9739C25.0805 18.8511 24.7016 18.7975 24.6754 18.862C24.6428 18.9114 25.1031 19.0731 25.6756 19.2052L25.7579 19.2262C26.3155 19.3679 26.9234 19.5225 27.1367 19.5852C27.3668 19.666 27.6295 19.6975 27.7115 19.6806C28.0329 19.5982 28.9558 19.885 29.0452 20.0966C29.0964 20.2175 29.18 20.289 29.2556 20.257C29.316 20.2315 29.5009 20.3315 29.6531 20.4809C29.8204 20.6239 30.0634 20.735 30.197 20.7141C30.4255 20.7066 30.4127 20.6764 30.114 20.5176C29.8217 20.374 29.8025 20.3287 30.0158 20.3276C30.4965 20.2847 31.7906 21.3231 31.443 21.47C31.3674 21.502 31.1722 21.3351 31.0246 21.1125C30.8555 20.8811 30.6667 20.7294 30.5911 20.7613C30.5004 20.7996 30.5899 21.0112 30.8362 21.299C31.3458 21.9565 31.2353 22.0744 30.4874 21.6959C30.1306 21.5261 29.4297 21.2167 28.92 21.0224C28.3889 20.8194 27.899 20.5455 27.8263 20.4159C27.6596 20.1479 26.9268 19.763 26.8721 19.9286C26.8395 19.978 26.9575 20.0884 27.1208 20.1797C27.5979 20.4234 27.2596 20.4239 26.0543 20.1853C25.4301 20.0572 24.8465 19.9833 24.771 20.0152C24.6954 20.0472 24.4072 19.9552 24.1061 19.8331L23.5773 19.5935L24.1201 19.6134C24.4218 19.6106 24.9472 19.6735 25.311 19.7335C26.0666 19.8772 26.3944 19.8099 25.9818 19.5924C25.8249 19.5162 25.629 19.4743 25.5534 19.5063C25.4628 19.5446 25.1268 19.5085 24.7868 19.4206C23.7128 19.1977 19.216 18.8007 18.9289 18.9221C18.8533 18.9541 18.8033 19.0465 18.8416 19.1371C18.8736 19.2127 18.9962 19.2499 19.102 19.2052C19.1927 19.1669 19.4879 19.1489 19.7506 19.1804C20.007 19.1967 20.7672 19.2673 21.4478 19.318C22.1196 19.3903 22.8862 19.4759 23.1466 19.544L23.6028 19.654L23.1803 19.7079C22.9431 19.7369 22.1806 19.703 21.4698 19.665C20.7677 19.6055 20.1277 19.6089 20.0498 19.6774C19.9807 19.7245 19.9377 19.707 19.9877 19.6146C20.0598 19.406 17.7617 19.2374 17.3385 19.4163C17.1572 19.493 16.7823 19.4911 16.4702 19.4271C16.1732 19.3567 15.4879 19.3792 14.9532 19.4628C14.4097 19.5678 13.4333 19.66 12.7782 19.6697C12.1145 19.7009 11.3513 19.7919 11.0816 19.8703C10.7904 19.94 10.4474 20.0137 10.3074 20.0195C10.1609 20.0101 9.14954 20.1883 8.05622 20.3833C4.78264 20.9834 1.3664 22.5524 1.97302 23.1866C2.13165 23.3512 2.08398 23.4069 1.74976 23.4592C1.36382 23.5154 1.34637 23.5585 1.52183 23.8049C1.64384 23.9671 1.69029 24.1613 1.64028 24.2537C1.58388 24.331 1.54125 25.115 1.54333 26.0049C1.55415 26.8732 1.53644 27.8427 1.52416 28.1507C1.49037 28.45 1.53644 30.0339 1.60808 31.6781C1.67332 33.3073 1.72086 35.9059 1.71988 37.4206C1.70378 38.9416 1.73929 40.9219 1.77799 41.814C1.8167 42.7062 1.83967 43.7298 1.8076 44.1174C1.78426 44.4836 1.81706 45.6989 1.85687 46.8044C1.91179 47.9035 1.93685 49.8169 1.92432 51.0514C1.91178 52.2859 1.98968 54.4085 2.08638 55.775C2.18947 57.1566 2.18565 58.3696 2.09669 58.4962C2.00135 58.6078 1.99065 59.4674 2.06364 60.3986C2.14535 61.3082 2.19683 62.2306 2.17643 62.4352C2.11757 63.0123 2.14399 66.4037 2.21279 67.7464C2.244 68.4101 2.21353 69.3494 2.15295 69.8381C2.08599 70.3118 2.06313 71.0162 2.0979 71.3935C2.12628 71.7556 2.12211 72.1671 2.09126 72.3048C2.04531 72.4489 2.08537 72.628 2.16032 72.721C2.36601 72.9547 2.17997 75.2958 1.93755 75.523C1.79686 75.6537 1.73874 75.6427 1.74402 75.4445C1.72498 74.9359 1.43659 75.3072 1.40563 75.9082C1.37823 76.2226 1.2438 76.8317 1.07805 77.2403C0.927405 77.6424 0.813378 78.0469 0.851714 78.1376C0.998055 78.6102 0.991541 79.0583 0.825294 79.1286C0.689274 79.1861 0.744444 79.3587 1.05875 79.8493C2.02551 81.2933 2.27015 81.4928 4.27224 82.2675C5.3561 82.6822 6.40802 83.0213 6.64516 82.9923C6.86719 82.9697 7.24613 83.0233 7.48266 83.1192C7.73431 83.2088 8.38873 83.3241 8.95308 83.3527C9.50871 83.4028 10.105 83.507 10.2834 83.5919C10.6745 83.8007 12.8715 83.9408 14.1409 83.8673C14.6431 83.8331 15.1493 83.8507 15.233 83.9222C15.4242 84.0374 17.8653 84.0386 18.1827 83.9044C18.5454 83.7511 22.6122 83.5104 22.9069 83.6174C23.0423 83.6848 23.5962 83.6466 24.1182 83.5329C24.625 83.4255 25.4359 83.2786 25.9189 83.1991C26.4083 83.1348 27.1442 82.8949 27.5848 82.673C28.0039 82.4424 28.7805 82.2566 28.7805 82.2566L31.4817 81.0612C31.9811 80.7253 32.6671 80.1147 33.0182 79.6812C33.7531 78.7648 33.7567 78.4783 33.0975 76.7083C32.6021 75.3678 32.5447 74.7686 32.6635 71.6364C32.6945 71.0355 32.6681 69.8352 32.6119 68.9861C32.5645 68.1154 32.519 66.4066 32.5188 65.1419C32.5281 62.8042 32.458 62.1747 32.349 63.3075C32.3041 63.6649 32.2663 63.9125 32.232 63.8736C32.1147 63.6382 32.0334 60.8756 32.1341 60.5658C32.1975 60.3787 32.2255 59.9393 32.2122 59.5708C32.1902 59.2238 32.2327 58.903 32.3083 58.8711C32.4897 58.7944 32.4505 57.5639 32.2639 57.3756C32.0368 57.1331 32.0266 56.1398 32.2533 56.044C32.3591 55.9993 32.3661 55.8894 32.276 55.8028C32.1389 55.647 32.1612 54.6043 32.3459 52.9764C32.371 52.6985 32.3309 52.5195 32.2426 52.5212C32.1391 52.5293 31.9956 52.3584 31.8998 52.1317C31.6697 51.5876 31.5732 51.9491 31.6455 53.0052C31.7191 53.8114 31.7102 54.7594 31.6513 57.5277C31.6482 58.1525 31.5725 58.6477 31.4929 58.6279C31.422 58.5866 31.3994 58.3646 31.4524 58.1106C31.4989 57.8415 31.48 56.8697 31.4221 55.9322C31.3041 54.0938 31.2597 52.5983 31.2704 51.7387C31.2886 51.1075 31.2816 46.8349 31.2533 46.0096C31.2505 45.7079 31.3233 45.3743 31.4163 45.2994C31.4878 45.2157 31.496 44.8559 31.4159 44.4979C31.2046 43.6609 31.0861 41.0209 31.2519 40.6124C31.3502 40.3392 31.3781 40.3631 31.389 40.7682C31.3942 41.0332 31.4853 41.3332 31.5754 41.4198C31.6719 41.5215 31.7095 42.2004 31.6691 42.9478C31.6376 43.6738 31.6449 44.3654 31.6833 44.4561C31.8047 44.7433 31.7581 47.2035 31.6272 47.5261C31.4766 47.9282 31.4247 48.3955 31.4873 49.2598C31.5324 50.1671 31.6707 50.073 31.6884 49.1035C31.6926 48.692 31.7456 48.438 31.7903 48.5438C31.8501 48.6432 31.8611 49.0484 31.8354 49.4511C31.78 50.205 31.9216 50.7508 32.1907 50.7973C32.2855 50.8107 32.3256 50.5265 32.3188 50.1731C32.2968 49.8261 32.29 49.0095 32.3082 48.3783C32.3264 47.7471 32.2935 46.995 32.2302 46.7189C32.1669 46.4428 32.1415 45.9191 32.1561 45.5745C32.1858 45.2234 32.1413 44.1912 32.0724 43.3118C32.0122 42.4109 32.0084 41.4327 32.0701 41.1572C32.1935 40.6062 32.1571 39.6775 31.9336 36.4941C31.8595 35.3496 31.8301 34.311 31.904 34.1907C31.9563 34.0617 31.9612 33.062 31.9063 31.9629C31.8266 30.2151 31.7544 28.2326 31.6558 25.513C31.6385 25.0928 31.7182 24.6494 31.8223 24.5163C32.1345 24.1171 32.5556 23.0483 32.6732 22.3573C32.7576 21.8406 32.7902 21.7912 32.8273 22.1318L32.8812 22.5544L33.0923 22.1267C33.2121 21.8622 33.2133 21.6123 33.0954 21.5019C32.9925 21.385 32.7189 20.9484 32.5034 20.5229C32.0125 19.5725 31.7894 19.3818 30.3772 18.6962C29.7926 18.4089 29.2428 18.0356 29.1725 17.8694C29.1086 17.7182 28.9308 17.5084 28.7891 17.4258C28.57 17.2868 28.5612 17.3083 28.7263 17.488C29.0819 17.9077 28.621 17.871 28.2072 17.4402C27.9928 17.228 27.6884 16.9291 27.5576 16.7884C27.4118 16.6541 27.2084 16.3838 27.1039 16.1786C26.6641 15.3491 26.2202 14.9311 25.7959 14.8967C25.5396 14.8803 25.2664 14.7821 25.1851 14.6739C25.0543 14.5332 25.1363 14.5164 25.4676 14.6258C26.4032 14.9428 25.71 14.3986 24.6691 14.0013C24.0583 13.7785 23.2395 13.3587 22.8403 13.0465C22.4324 12.7558 22.1273 12.5819 22.1656 12.6726C22.287 12.9597 21.0577 13.2122 19.5279 13.2176C18.7415 13.2116 17.9656 13.2724 17.7993 13.3427C17.6482 13.4066 17.4866 13.4036 17.4547 13.3281C17.4227 13.2525 17.1815 13.2298 16.899 13.2779C16.638 13.3348 16.1835 13.3132 15.9017 13.2364C15.6198 13.1596 15.4152 13.1392 15.4344 13.1846C15.4599 13.245 15.3565 13.2531 15.1972 13.2136C15.0316 13.1589 14.6997 13.1745 14.4538 13.225C14.1929 13.2819 13.8761 13.2911 13.732 13.2451C13.5082 13.1794 12.48 13.2756 12.0592 13.4179C11.7895 13.4963 11.5897 12.9394 11.8019 12.725C11.9036 12.6286 12.089 12.6036 12.2157 12.6926C12.3424 12.7815 12.4156 12.7862 12.3901 12.7258C12.3645 12.6653 12.5069 12.6229 12.7266 12.6369C13.0108 12.6771 13.1405 12.6045 13.2492 12.3982C13.3254 12.2413 13.4161 12.2029 13.4544 12.2936C13.4864 12.3692 13.4317 12.5348 13.3148 12.6377C12.9619 12.9828 13.4484 13.08 13.9454 12.7808C14.4058 12.4793 14.8365 12.5288 14.5313 12.8182C14.4446 12.9082 14.6109 12.8379 14.894 12.6648C15.3067 12.4191 15.4706 12.3854 15.6293 12.5499C15.7815 12.6993 15.9431 12.7023 16.1593 12.5396C16.3215 12.4176 16.5395 12.3433 16.6232 12.4148C16.7005 12.4712 16.944 12.4573 17.1556 12.3678C17.3521 12.2848 17.7118 12.293 17.9484 12.389C18.1849 12.4849 18.5726 12.517 18.8248 12.4816C19.0922 12.4398 19.3811 12.4068 19.4822 12.4353C19.592 12.4423 19.7472 12.4301 19.8228 12.3982C19.9199 12.375 20.1872 12.3332 20.4395 12.2978C21.1207 12.2236 21.3224 11.9423 20.6976 11.9393C20.3013 11.9287 20.2152 11.8938 20.3926 11.7654C20.5158 11.6777 20.807 11.608 21.0116 11.6284C21.3841 11.6669 21.3929 11.6453 21.1616 11.3512C20.9216 11.0785 20.9153 11.0634 21.2767 11.16C21.479 11.217 21.823 11.3566 22.0229 11.4502C22.2786 11.5915 22.3972 11.577 22.4217 11.4242C22.4374 11.2928 22.3601 11.2364 22.2241 11.2939C21.9067 11.4281 21.3252 10.516 21.2963 9.81565C21.2587 9.13678 21.1373 8.84961 20.9919 9.05359C20.7663 9.36273 20.677 8.68792 20.8817 8.24509C21.0341 7.93127 21.0196 7.8127 20.8644 7.82486C20.6877 7.8283 20.6732 7.70973 20.7977 7.37207C20.9134 7.05593 20.8769 6.59036 20.669 5.93004C20.5122 5.39062 20.424 4.92912 20.4845 4.90356C20.56 4.87161 20.527 4.58273 20.4381 4.24618C19.9667 2.41464 19.8181 1.51546 19.9746 1.25337C20.0507 1.09646 20.0903 0.937224 20.0322 0.926168C19.7805 0.836591 18.5326 0.918785 18.2153 1.05296C18.0188 1.13602 17.8206 1.13074 17.7886 1.05517C17.7503 0.964493 17.6038 0.955161 17.4678 1.01266C17.3167 1.07656 16.8488 1.14966 16.4286 1.16698C16.0147 1.19942 15.6503 1.26443 15.6392 1.32255C15.5607 1.51607 15.9263 1.66438 16.2134 1.54298C16.3646 1.47909 16.5779 1.47798 16.6766 1.5431C16.8097 1.64717 16.6952 1.71339 16.2552 1.81034C15.8152 1.90729 15.6855 1.97991 15.7558 2.14616C15.8581 2.38797 16.5363 2.47534 17.0391 2.31622C17.4082 2.17799 17.5541 2.31229 17.3244 2.56971C17.2378 2.65977 17.3134 2.62783 17.4907 2.49943C17.9319 2.15256 18.8797 2.62475 18.9737 3.22634C19.0027 3.46349 18.9928 3.73491 18.9404 3.86393C18.8643 4.02084 18.8428 4.01211 18.8608 3.84414C18.8829 3.72791 18.8295 3.64362 18.7388 3.68195C18.6481 3.72029 18.7289 3.95338 18.9148 4.26671C19.135 4.61898 19.1774 4.76139 19.0245 4.73694C18.9147 4.72994 18.8152 4.78977 18.7931 4.90601C18.7797 5.00074 18.8268 5.06992 18.9175 5.03158C19.1139 4.94852 19.1637 5.78258 18.9846 6.28587C18.9037 6.51602 18.9182 6.63458 19.024 6.58986C19.1298 6.54513 19.2373 6.58876 19.2756 6.67944C19.3076 6.755 19.2448 6.81718 19.1286 6.79506C18.9972 6.77933 18.971 6.84384 19.0675 6.94558C19.1424 7.03859 19.2121 7.3298 19.1894 7.571C19.1573 7.95867 19.1893 8.03423 19.4862 8.10464C19.8111 8.19888 19.8111 8.19888 19.5757 8.31622C19.4397 8.37373 19.2792 8.58409 19.2373 8.77995C19.2018 8.99092 19.0692 9.22511 18.9739 9.33668C18.8181 9.47381 18.846 9.49764 19.0575 9.40819C19.1999 9.36581 19.3464 9.37515 19.3784 9.45072C19.4167 9.5414 19.2998 9.64424 19.1272 9.69941C18.9546 9.75457 18.793 9.75162 18.761 9.67606C18.6396 9.38891 18.0497 9.29982 17.7643 9.50956C17.587 9.63797 17.5265 9.66352 17.6132 9.57346C17.9294 9.22598 17.6133 9.11023 17.1314 9.40304C16.4873 9.81786 15.6986 9.84845 15.39 9.49789C15.1843 9.26419 15.1477 9.26184 15.1703 9.48388C15.2057 9.73613 15.1516 9.77681 14.3368 9.87191C13.841 9.92119 13.3516 9.98557 13.233 10.0001C13.0778 10.0122 13.0633 9.89366 13.1791 9.57751C13.2686 9.32587 13.285 9.06955 13.2077 9.01315C13.1368 8.97186 13.1566 8.89224 13.2321 8.86029C13.4437 8.77084 13.5907 9.11845 13.4685 9.41949C13.3726 9.65602 13.4092 9.65836 14.47 9.51275C14.6251 9.50059 14.7333 9.41924 14.7013 9.34368C14.663 9.253 14.4369 9.22388 14.2062 9.268C13.9022 9.30744 13.7667 9.23998 13.7633 9.06328C13.7511 8.9081 13.7262 8.72268 13.6943 8.64712C13.6687 8.58666 13.7617 8.51171 13.9018 8.50593C14.0483 8.51528 14.1413 8.44032 14.1029 8.34964C14.0646 8.25896 14.1878 8.17122 14.3733 8.14628C14.9295 8.07145 15.4382 7.58918 15.2174 7.36187C15.0652 7.21245 15.1128 7.15667 15.3651 7.12128C15.5505 7.09634 15.6737 7.0086 15.6418 6.93304C15.6099 6.85747 15.6901 6.7523 15.811 6.70118C16.1133 6.57339 16.1612 5.59115 15.915 4.84015C15.7959 4.51638 15.7222 4.17344 15.7635 4.10254C15.8618 3.8294 15.6409 3.60208 15.0046 3.31886C14.3316 3.0333 13.7173 3.09707 14.0345 3.42612C14.131 3.52787 14.1065 3.68072 13.9443 3.80273C13.8123 3.91196 13.6636 3.93924 13.638 3.87879C13.606 3.80322 13.4968 3.67125 13.394 3.5544C13.2696 3.42882 13.2766 3.31897 13.4278 3.25508C13.5638 3.19758 13.6574 2.99767 13.6261 2.79714C13.6122 2.5536 13.7012 2.42692 13.9168 2.3892C14.4213 2.31843 14.1982 2.12772 13.6228 2.15721C13.2025 2.17453 13.1119 2.21287 13.1821 2.37912C13.2269 2.48492 13.2082 2.77784 13.1401 3.03821C13.0569 3.30497 13.1015 3.87399 13.22 4.32272C13.4232 5.05628 13.3555 6.11814 13.1102 6.04368C12.951 6.00412 12.5153 7.41752 12.5716 7.80346ZM19.5215 2.24655C19.6134 1.95829 19.6408 1.64386 19.6025 1.55318C19.5258 1.37182 19.2497 1.4351 19.2293 1.63968C19.231 1.72803 19.2577 2.00179 19.3059 2.28428L19.3767 2.78879L19.5215 2.24655ZM19.8136 3.31665C19.9234 3.32365 19.9456 3.20743 19.8753 3.04118C19.7986 2.85982 19.6806 2.74935 19.59 2.78768C19.5144 2.81963 19.4772 2.94226 19.5283 3.06317C19.5794 3.18408 19.7189 3.30326 19.8136 3.31665ZM19.6011 4.45753C19.7225 4.74468 19.7376 4.73829 19.7331 4.34829C19.7309 3.92167 19.624 3.7531 19.5193 4.01113C19.478 4.08203 19.5157 4.29767 19.6011 4.45753ZM20.1808 5.7445C20.16 5.61081 20.1437 5.4039 20.1659 5.28766C20.1816 5.15631 20.0572 5.03073 19.8916 4.97605C19.5667 4.88181 19.5661 5.00677 19.8543 5.56191C19.9333 5.70665 19.939 5.84673 19.8635 5.87868C19.7274 5.93618 19.8098 6.72084 20.039 7.85312C20.1424 8.30824 20.1639 8.31696 20.2605 7.95547C20.3111 7.73811 20.3083 7.43646 20.238 7.27021C20.1485 7.05862 20.2049 6.98134 20.4938 6.94829C20.7891 6.93035 20.8216 6.88095 20.6566 6.70131C20.5387 6.59084 20.4103 6.41355 20.3719 6.32287C20.3272 6.21707 20.2731 6.25774 20.2399 6.43209C20.2021 6.67968 20.1719 6.69246 20.076 6.46576C20.0185 6.32974 20.0366 6.16177 20.1145 6.09321C20.1773 6.03104 20.2169 5.8718 20.1808 5.7445ZM9.96531 12.4682C10.0217 12.3909 10.0962 12.1457 10.1015 11.9475C10.1556 11.4436 9.85104 11.608 9.7579 12.1462C9.67521 12.7512 9.82031 13.4737 10.0464 13.5028C10.1626 13.5249 10.1592 13.3482 10.0442 13.0762C9.94196 12.8344 9.8938 12.5519 9.96531 12.4682ZM12.5364 11.0071C12.5626 10.9426 12.4638 10.8775 12.311 10.8531C11.9471 10.7931 11.6234 10.9122 11.7 11.0935C11.7639 11.2446 12.4817 11.1728 12.5364 11.0071ZM10.6506 12.4457C10.7412 12.4074 10.7849 12.2999 10.7529 12.2243C10.7146 12.1336 10.6588 12.0859 10.6286 12.0987C10.5832 12.1179 10.5332 12.2103 10.5262 12.3201C10.5128 12.4149 10.575 12.4777 10.6506 12.4457ZM12.1839 12.1538C12.3653 12.0771 12.4368 11.9934 12.3508 11.9585C12.1142 11.8626 11.5359 12.0536 11.7119 12.1752C11.7892 12.2316 12.0177 12.2241 12.1839 12.1538ZM19.6481 9.37232C19.7986 9.43339 19.8422 9.32588 19.7789 9.04978C19.7348 8.81902 19.6279 8.65045 19.5523 8.68239C19.3408 8.77184 19.4115 9.27635 19.6481 9.37232ZM20.8667 9.97944C20.9231 9.90215 20.8877 9.64989 20.7855 9.40808C20.5044 8.74309 20.2626 8.84532 20.535 9.53181C20.6691 9.8492 20.8103 10.0567 20.8667 9.97944ZM14.8151 12.0568C15.6085 11.953 15.855 11.7776 15.1912 11.8088C14.3141 11.8411 14.0014 11.902 14.0526 12.0229C14.0845 12.0985 14.4292 12.1131 14.8151 12.0568ZM17.5262 11.0532C17.5523 10.9887 17.4623 10.9021 17.3094 10.8776C16.7927 10.7932 16.5439 11.0053 17.0153 11.1089C17.2692 11.1618 17.4913 11.1392 17.5262 11.0532ZM12.2786 14.3584C11.6979 14.5861 11.4631 14.5784 11.0505 14.3609C10.4316 14.0347 9.91137 14.2368 8.5981 15.3443C7.48831 16.2588 5.83431 17.8666 5.87265 17.9573C5.89182 18.0026 6.21559 17.8836 6.61726 17.696C7.4206 17.3207 9.03823 16.9753 9.25731 17.1143C9.48917 17.2835 10.332 17.2122 12.0013 16.8628C12.8575 16.6968 13.6788 16.6168 13.8054 16.7057C13.9408 16.7732 14.3006 16.7814 14.6069 16.7054C15.5561 16.4644 16.5088 16.4002 16.7645 16.5415C16.8999 16.6089 17.3329 16.6218 17.7037 16.5719C18.0897 16.5157 18.486 16.5262 18.5633 16.5826C18.647 16.6541 18.8993 16.6187 19.126 16.5229C19.3527 16.4271 19.7578 16.4161 20.0396 16.4929C20.3215 16.5697 20.6511 16.5907 20.772 16.5396C20.9533 16.463 20.9574 16.5147 20.812 16.7186C20.6754 16.9011 20.4876 16.9627 20.2313 16.9463C20.0116 16.9323 19.8843 16.9683 19.9227 17.059C19.9546 17.1346 20.09 17.202 20.2086 17.1875C20.3336 17.1881 20.3225 17.2463 20.1714 17.3102C20.0266 17.3892 19.7296 17.3188 19.5257 17.1734C19.3066 17.0344 18.887 16.9268 18.5702 16.936C18.2598 16.9603 17.7902 16.9451 17.5124 16.92C17.1765 16.8839 16.9434 16.9646 16.7248 17.1639C16.5902 17.2952 16.518 17.3656 16.5323 17.4023C16.5488 17.4447 16.6807 17.4421 16.9648 17.4366C17.26 17.4186 17.7343 17.3606 18.0255 17.291C18.3167 17.2213 18.5858 17.2679 18.6305 17.3737C18.6817 17.4946 18.8409 17.5342 18.992 17.4703C19.1432 17.4064 19.3501 17.3901 19.4727 17.4274C19.8598 17.5844 24.0491 17.8442 23.7568 17.7005C23.5935 17.6092 22.9908 17.4899 22.4073 17.4159C21.3414 17.2965 21.0467 17.1895 20.9468 16.9111C20.9085 16.8204 20.9666 16.8314 21.0503 16.903C21.1252 16.996 21.3147 17.0228 21.4356 16.9716C21.6321 16.8886 21.6193 16.8584 21.3572 16.7019C21.0649 16.5583 21.08 16.5519 21.4096 16.5729C21.6141 16.5933 22.025 16.7225 22.311 16.851C22.5969 16.9795 22.8811 17.0197 22.9462 16.9209C23.0177 16.8372 23.0456 16.8611 23.0235 16.9773C22.9944 17.2034 23.2013 17.1872 23.5902 16.9693C23.789 16.8496 24.8083 17.2382 24.9042 17.4649C24.9489 17.5706 25.991 17.718 26.1875 17.6349C26.2177 17.6221 26.1125 17.5419 25.9492 17.4506C25.7859 17.3593 25.5715 17.1471 25.471 16.9936C25.2851 16.6803 25.3002 16.6739 25.6332 16.8716C25.8244 16.9868 25.9557 17.0025 25.9174 16.9118C25.8854 16.8362 25.3804 16.5687 24.7999 16.3332C24.2344 16.0913 23.4371 15.6801 23.0506 15.3981C22.6491 15.1225 22.1249 14.8097 21.8971 14.6922C21.6542 14.5811 21.4677 14.3928 21.4596 14.2893C21.4451 14.1707 21.7676 14.3016 22.1541 14.5836C22.5556 14.8592 23.035 15.0663 23.2053 15.0477C23.4361 15.0036 23.5413 15.0838 23.5639 15.3059C23.5987 15.6831 24.2519 16.0483 24.7843 16.0013C25.1766 15.9602 25.1702 15.945 24.7797 15.6113C24.563 15.4357 24.3875 15.1893 24.373 15.0707C24.3649 14.9672 24.1888 14.8457 23.9691 14.8317C23.7494 14.8177 23.5925 14.7415 23.6187 14.677C23.671 14.548 23.0283 14.2496 22.8469 14.3263C22.7865 14.3519 22.6615 14.3513 22.5691 14.3012C22.4831 14.2663 22.5093 14.2018 22.6151 14.1571C22.736 14.106 22.5041 13.9368 22.102 13.7862C21.6719 13.6117 21.4005 13.6017 21.415 13.7203C21.4271 13.8755 21.2051 13.8981 20.7187 13.8009C20.3333 13.7322 19.4045 13.7686 18.6629 13.8684C18.5915 13.878 18.5199 13.8876 18.4487 13.8973C18.4109 13.9024 18.3732 13.9075 18.3357 13.9126C18.3223 13.9144 18.3089 13.9162 18.2955 13.918C18.2859 13.9193 18.2763 13.9206 18.2668 13.9219L18.264 13.9223C17.6669 14.0032 17.1299 14.0761 16.9726 14.0841C16.7872 14.1091 16.3112 14.0787 15.9195 13.9949C15.5341 13.9262 15.1505 13.9459 15.0854 14.0447C14.9313 14.2701 15.1998 14.4417 15.5172 14.3075C15.8107 14.2012 16.5663 14.345 16.5116 14.5106C16.479 14.56 15.8647 14.6238 15.1428 14.6439C13.9792 14.6727 13.8996 14.6529 14.3617 14.4397C14.664 14.3119 14.7895 14.1876 14.682 14.144C14.3723 14.0433 13.5527 14.2117 13.6166 14.3628C13.6485 14.4384 13.5166 14.5476 13.3288 14.6092C13.126 14.6771 12.8714 14.7491 12.7743 14.7723C12.6685 14.817 12.5395 14.7647 12.5012 14.674C12.4564 14.5682 12.6314 14.4764 12.9743 14.4027C13.3905 14.3337 13.4382 14.2779 13.2447 14.1994C13.1093 14.1319 12.678 14.2074 12.2786 14.3584ZM17.1789 12.0017C17.2998 11.9506 17.3283 11.8494 17.2511 11.793C17.1674 11.7215 17.036 11.7058 16.9454 11.7441C16.8698 11.7761 16.8349 11.8621 16.8732 11.9528C16.9052 12.0283 17.0429 12.0592 17.1789 12.0017ZM11.4469 14.3715C11.5719 14.3721 11.7015 14.2995 11.7277 14.235C11.769 14.1641 11.6591 14.1571 11.4992 14.2425C11.333 14.3128 11.3068 14.3773 11.4469 14.3715ZM18.1548 12.0345C18.2646 12.0415 18.3187 12.0008 18.2804 11.9101C18.2484 11.8346 18.1368 11.7392 18.027 11.7322C17.9323 11.7188 17.8631 11.7659 17.9014 11.8566C17.9334 11.9321 18.0601 12.0211 18.1548 12.0345ZM9.88715 17.8456C11.4954 17.6467 11.5559 17.6211 10.5975 17.5453C9.57223 17.48 8.755 17.6117 8.84445 17.8232C8.87639 17.8988 9.34602 17.9141 9.88715 17.8456ZM12.3563 17.4075C13.0009 17.3309 13.3642 17.0526 12.9272 16.988C12.6581 16.9414 11.6501 17.2963 11.7076 17.4323C11.7204 17.4625 12.007 17.4661 12.3563 17.4075ZM15.9267 17.341C16.2441 17.2068 15.9407 17.1213 15.277 17.1525C14.9817 17.1704 14.5766 17.1814 14.415 17.1784C14.2383 17.1819 14.1174 17.233 14.1366 17.2783C14.1941 17.4143 15.6332 17.4473 15.9267 17.341ZM9.06046 20.7782C8.63556 20.8688 7.83984 21.0092 7.28998 21.0992C6.74012 21.1891 5.47355 21.5642 4.49351 21.9429C1.9917 22.8937 1.89402 23.0419 1.99674 25.8132C2.01283 26.4833 2.0068 27.2697 1.98174 27.5475C1.95028 27.8102 1.96822 28.1055 2.01295 28.2113C2.05128 28.302 2.08126 29.2156 2.06123 30.2217C2.04759 31.2429 2.09674 32.2019 2.15424 32.338C2.21814 32.4891 2.25057 32.9029 2.21212 33.2755C2.18877 33.6416 2.18324 34.7663 2.22133 35.7834C2.25941 36.8006 2.28866 38.3025 2.29541 39.1191C2.28706 39.9421 2.3147 40.8924 2.33669 41.2394C2.39408 41.8386 2.4227 43.4654 2.40673 44.5233C2.38805 44.8162 2.43781 45.6503 2.5033 46.353C2.55368 47.0621 2.59054 48.3291 2.58857 49.1672C2.55121 51.9443 2.59434 53.6897 2.73748 55.2503C2.8864 56.951 2.89967 59.5107 2.76168 60.4063C2.71278 60.712 2.73882 61.1107 2.80911 61.277C2.94967 61.6095 3.06812 64.2494 2.96515 64.5958C2.93431 64.7335 2.91612 65.3647 2.94733 66.0285C2.96343 66.6986 2.9214 67.3577 2.82372 67.5059C2.73242 67.6692 2.73586 67.8459 2.84104 67.9261C2.93983 67.9912 2.99672 68.2522 2.95249 68.4847C2.77321 69.4512 3.05335 76.0132 3.26838 76.1005C3.39101 76.1377 3.39002 75.4612 3.29272 72.0285C3.24836 70.533 3.21802 68.8178 3.24898 68.2168C3.27995 67.6159 3.24996 66.7022 3.1943 66.1913C3.09171 65.148 3.18018 64.683 3.37825 65.1515C3.44853 65.3178 3.54953 68.0007 3.59228 71.1358C3.63503 74.2709 3.72325 76.9236 3.77437 77.0445C3.8766 77.2863 5.57937 78.0273 6.59295 78.2757C6.94805 78.3572 7.21247 78.477 7.17991 78.5264C7.11884 78.6769 6.07737 78.4046 4.98712 77.9748C3.86898 77.5211 3.61328 77.3798 3.36926 77.0555C3.24725 76.8933 3.24896 76.9816 3.36164 77.2903C3.51265 77.6896 3.73812 77.8437 4.56395 78.1537C6.2156 78.7737 8.06201 79.2223 9.52432 79.3523C10.1532 79.4071 9.90449 79.156 9.24135 79.0622C8.92053 79.0197 8.69039 78.9389 8.71656 78.8743C8.7689 78.7453 10.6328 79.1509 11.3336 79.4603C11.8282 79.661 14.5291 79.8553 14.5988 79.6832C14.6163 79.6402 13.9165 79.5441 13.0529 79.4817C12.1892 79.4193 11.5348 79.304 11.6039 79.257C11.7446 79.1262 13.1471 79.1568 14.3746 79.2792C14.7535 79.3328 15.247 79.3201 15.4778 79.276C15.7172 79.2104 16.1869 79.2257 16.5292 79.2769C17.0459 79.3613 17.0738 79.3851 16.7244 79.4438C16.5356 79.4668 16.2076 79.481 15.9143 79.4938C15.8391 79.497 15.7662 79.5002 15.6986 79.5033C15.3603 79.5038 15.0714 79.5369 15.0604 79.595C14.9818 79.7885 17.0562 79.8914 17.7508 79.7224C18.5942 79.5262 20.9854 79.1566 21.2911 79.2055C21.4742 79.2172 21.7782 79.1777 21.9659 79.1162C22.1624 79.0331 22.4815 78.9873 22.6797 78.9926C22.936 79.0089 22.8366 79.0688 22.3274 79.2128C21.7514 79.3672 21.6735 79.4358 21.867 79.5143C22.0175 79.5754 22.6 79.436 23.2411 79.1828C24.4176 78.721 25.2674 78.5399 25.5144 78.7027C25.5917 78.7591 26.1113 78.682 26.6786 78.549C27.2244 78.4073 27.9358 78.3203 28.2288 78.339C28.6745 78.3822 28.9832 78.2695 29.9296 77.7269C30.5562 77.3551 31.1271 76.9356 31.1818 76.7699C31.3301 76.4044 31.1382 74.6863 30.9568 74.7629C30.8812 74.7949 30.8451 75.1308 30.895 75.5017C30.9298 75.8789 30.9262 76.1654 30.8617 76.1392C30.7327 76.0869 30.6564 74.5158 30.7768 74.1265C30.8315 73.9608 30.8525 73.6313 30.8235 73.3941C30.7794 73.1634 30.7918 72.3921 30.8361 71.6964C30.8741 70.9856 30.8401 70.0202 30.7606 69.5372C30.6811 69.0541 30.7044 68.688 30.8056 68.7165C30.898 68.7665 30.8811 68.6845 30.7719 68.5526C30.6196 68.4032 30.6243 68.3299 30.7621 68.3608C30.9085 68.3701 30.8917 68.2882 30.7203 68.0934C30.5489 67.8986 30.532 67.8167 30.6785 67.826C30.8099 67.8418 30.8209 67.7836 30.703 67.6732C30.6065 67.5714 30.5607 67.2523 30.5945 66.953L30.6574 66.4276L30.7775 66.9647C30.8408 67.2408 30.9569 67.7261 31.0266 68.0173C31.2309 68.9642 31.3253 68.1761 31.1915 66.469C31.1313 65.5681 31.0949 64.6393 31.1392 64.4068C31.1834 64.1744 31.1632 63.4525 31.1082 62.8166C31.0532 62.1808 31.0766 61.3514 31.1366 60.9875C31.278 60.2686 31.1921 59.7705 31.0339 60.4075C30.944 60.7829 30.9373 60.769 30.7894 60.4609L30.788 60.458C30.6219 60.065 30.6641 58.4795 30.8536 58.5062C30.9268 58.5109 30.9885 58.2354 31.0119 57.8693C31.0405 57.3049 31.0149 57.2445 30.8353 57.4095C30.5603 57.6861 30.5418 57.5158 30.584 55.9302C30.6052 55.1374 30.606 54.086 30.5806 53.5623C30.5662 52.9805 30.6151 52.6748 30.7418 52.7638C30.9458 52.9091 30.8204 52.107 30.5329 51.4269C30.4371 51.2002 30.4215 50.8683 30.5128 50.705C30.6628 50.4278 30.6843 50.4366 30.7191 50.8138C30.7626 51.1695 30.7905 51.1933 30.8864 50.9568C30.9626 50.7999 30.8616 50.3082 30.6595 49.7879C30.3255 48.9137 30.2543 48.0709 30.5233 48.1175C30.5966 48.1221 30.5995 47.9606 30.5165 47.7641C30.4549 47.5763 30.4591 47.1648 30.5446 46.8615C30.6301 46.5581 30.6639 46.2588 30.632 46.1832C30.6 46.1076 30.6037 45.3579 30.6423 44.5221C30.7084 42.9086 30.6986 42.7168 30.5207 42.9702C30.3515 43.2021 30.2371 42.8051 30.3087 42.2582L30.3757 41.7845L30.4918 42.2698C30.5719 42.6279 30.6091 42.5052 30.6384 41.8159C30.6559 41.3097 30.6503 40.7064 30.6277 40.4844C30.6074 40.2914 30.5971 40.1933 30.5783 40.1916C30.5589 40.1899 30.5304 40.2912 30.4725 40.4965C30.4068 40.7203 30.3778 40.4831 30.3849 39.9101C30.4048 39.3672 30.373 38.8284 30.3282 38.7226C30.2771 38.6017 30.3423 38.5029 30.4457 38.4948C30.6741 38.4873 30.7814 37.2662 30.6089 36.8581C30.5578 36.7372 30.5224 36.485 30.5428 36.2804C30.5632 36.0758 30.5842 35.7463 30.5982 35.5266C30.6408 34.7425 30.5892 34.2833 30.4677 34.4594C30.3724 34.571 30.3253 34.5018 30.305 34.2432C30.221 33.3701 30.2787 32.5797 30.4095 32.7204C30.4844 32.8134 30.5285 33.0442 30.5081 33.2487C30.4941 33.4684 30.5365 33.6109 30.597 33.5853C30.6574 33.5597 30.7046 33.1657 30.6832 32.6937C30.6717 32.3415 30.6644 31.6487 30.6574 30.9924C30.6574 30.9908 30.6574 30.9892 30.6574 30.9876L30.6574 30.9859C30.6573 30.9809 30.6573 30.9759 30.6572 30.9709C30.6559 30.8429 30.6545 30.7165 30.6532 30.5944C30.6526 30.5375 30.6519 30.4816 30.6513 30.427C30.6509 29.6255 30.5734 28.3043 30.4719 27.4743C30.3553 26.6507 30.3027 25.515 30.3162 24.957L30.3578 23.9597L29.5849 23.3957C29.1555 23.0962 28.5517 22.7636 28.2634 22.6717C27.9536 22.5711 27.7194 22.4385 27.7456 22.374C27.8305 22.1956 30.0685 23.1912 30.1254 23.4522C30.1782 23.6615 30.1934 23.6551 30.2463 23.4011C30.3388 22.9879 30.1105 22.5321 29.713 22.3083C29.5219 22.1931 29.3905 22.1774 29.4225 22.253C29.4608 22.3437 29.6154 22.4565 29.7723 22.5326C29.9141 22.6152 29.7978 22.5931 29.4881 22.4925C29.1783 22.3918 28.9377 22.2441 28.9424 22.1709C28.9471 22.0977 28.5193 21.8866 27.9794 21.7051L27.9491 21.6948C25.3809 20.8261 25.3549 20.8173 24.1704 20.7857C23.7223 20.7792 23.0806 20.6942 22.7191 20.5976C22.3791 20.5098 21.9915 20.4777 21.8555 20.5352C21.7345 20.5863 21.3835 20.5566 21.0586 20.4623C20.3014 20.2302 17.6348 20.0749 16.9425 20.2072C16.6449 20.2618 16.2206 20.2274 16.0207 20.1338C15.8057 20.0465 15.3576 20.04 15.0361 20.1225C14.6932 20.1962 13.8202 20.2802 13.1047 20.3155C12.3828 20.3356 11.5011 20.4412 11.143 20.5213C10.785 20.6014 10.3409 20.6466 10.1578 20.635C9.97476 20.6233 9.48535 20.6877 9.06046 20.7782ZM26.7345 17.2433C27.0443 17.344 27.053 17.3224 26.7543 17.1637C26.591 17.0724 26.419 17.0026 26.3887 17.0154C26.2678 17.0665 26.3945 17.1555 26.7345 17.2433ZM26.3466 18.1377C26.6744 18.0704 26.7134 18.0361 26.5071 17.9273C26.2084 17.7686 25.7962 17.8894 25.8857 18.101C25.9176 18.1765 26.1222 18.1969 26.3466 18.1377ZM30.4449 19.8255C30.9667 20.1749 31.0638 20.1517 30.7123 19.7837C30.5751 19.6279 30.3473 19.5105 30.2439 19.5186C30.1038 19.5243 30.17 19.6389 30.4449 19.8255ZM31.3334 24.9189C31.3817 24.7382 31.4242 24.4174 31.3864 24.2017C31.3702 23.9948 31.2912 23.8501 31.2157 23.882C31.1401 23.914 31.0719 24.6376 31.0699 25.4757C31.0554 27.5483 31.0844 27.7854 31.2283 26.5667C31.2936 26.0047 31.3198 25.4769 31.2879 25.4013C31.2496 25.3107 31.2636 25.091 31.3334 24.9189ZM31.7049 24.2809C31.7433 24.3716 31.8124 24.3245 31.8735 24.174C31.9259 24.045 31.9201 23.9049 31.8707 23.8723C31.8062 23.8461 31.7219 23.8996 31.7021 23.9792C31.6608 24.0501 31.6666 24.1902 31.7049 24.2809ZM31.5484 31.5798C31.624 31.5478 31.6183 30.9445 31.5313 30.2331C31.4443 29.5216 31.3352 28.9264 31.2922 28.909C31.1783 28.8503 31.2967 31.4902 31.4135 31.8506C31.4622 32.0081 31.5547 32.0581 31.6111 31.9808C31.6523 31.9099 31.6378 31.7913 31.5605 31.735C31.4681 31.6849 31.4728 31.6117 31.5484 31.5798ZM31.3658 36.2887C31.3874 35.8342 31.3922 35.2978 31.3696 35.0757C31.3075 34.5497 31.1454 34.6717 31.1597 35.2535C31.1649 35.5186 31.178 36.3503 31.168 37.085C31.1565 38.5328 31.2591 39.5761 31.3923 39.2169C31.4296 39.0943 31.4256 38.5793 31.3851 38.062C31.3445 37.5448 31.3291 36.7496 31.3658 36.2887ZM30.7868 54.1343C30.8274 54.1884 30.8693 53.9925 30.8944 53.7147C30.9282 53.4154 30.9079 53.1567 30.8498 53.1457C30.7638 53.1108 30.7101 53.9529 30.7868 54.1343ZM31.8459 64.3931C31.9767 64.5338 32.0226 64.3896 31.9948 63.9026C31.9457 62.9436 31.6651 62.6168 31.6456 63.498C31.6502 63.888 31.7344 64.2977 31.8459 64.3931ZM31.9952 69.0865C32.1457 69.1475 32.2031 67.5556 32.1076 65.9392C32.07 65.2603 32.0103 64.6977 31.9801 64.7105C31.829 64.7744 31.8027 65.3021 31.9037 65.7938C31.9797 66.1002 31.9907 66.5053 31.9209 66.6773C31.7981 67.1033 31.8447 69.0254 31.9952 69.0865ZM2.24091 79.9909C1.71563 79.4647 1.43216 78.8364 1.57175 78.4923C1.62409 78.3633 1.61832 78.2232 1.55381 78.1971C1.29578 78.0924 1.24147 79.0595 1.46509 79.5885C1.63761 79.9965 1.93569 80.2802 2.50287 80.6105C2.94976 80.867 3.29319 81.1315 3.26702 81.196C3.24085 81.2605 3.30708 81.375 3.43376 81.464C3.55405 81.5379 3.43142 81.5006 3.18212 81.3744C2.91769 81.2546 2.69161 81.2255 2.67821 81.3202C2.63398 81.5527 3.59521 81.9302 3.94687 81.835C4.09567 81.8077 4.481 81.8764 4.81866 82.0008C5.22082 82.1515 5.4039 82.1632 5.3464 82.0271C5.29528 81.9062 5.69978 82.0203 6.23501 82.275C6.77664 82.5448 7.5339 82.7769 7.91517 82.7939C8.31795 82.8195 8.88403 82.9365 9.20018 83.0523C9.55295 83.1704 10.0011 83.1769 10.3551 83.045L10.9485 82.8476L10.4493 82.7201C10.1674 82.6434 9.44384 82.5752 8.83414 82.5657C8.22445 82.5562 7.67115 82.4695 7.62642 82.3637C7.5817 82.2579 7.15803 82.0985 6.7082 82.0037C5.53943 81.7674 2.78769 80.5257 2.24091 79.9909ZM7.97956 81.0921C7.91911 81.1176 7.17229 80.9524 6.31156 80.7284C5.45084 80.5044 4.27225 80.0763 3.6725 79.7954C2.84496 79.397 2.60609 79.3377 2.6287 79.5597C2.62575 79.7213 2.73265 79.8899 2.86166 79.9422C3.03369 80.012 3.02963 79.9603 2.87973 79.7743C2.64615 79.5167 2.66126 79.5103 3.00936 79.7016C3.23716 79.8191 3.33129 79.9575 3.26616 80.0563C3.19465 80.1399 3.44629 80.2295 3.79095 80.2441C4.40704 80.2687 4.73769 80.503 4.39008 80.65C4.26917 80.7011 4.31623 80.7703 4.52254 80.879C4.68583 80.9703 4.92298 80.9413 5.10028 80.8129C5.42467 80.5689 6.39057 80.8731 6.28994 81.1829C6.23993 81.2753 6.27654 81.2776 6.35678 81.1724C6.42829 81.0888 6.59859 81.0702 6.71016 81.1656C7.18666 81.5342 9.08247 82.0153 9.31384 81.8463C9.4458 81.737 9.73468 81.704 9.95843 81.7697C10.3478 81.8901 10.3478 81.8901 9.94504 81.8645C9.23422 81.8265 9.39051 82.0276 10.1548 82.1499C11.0934 82.3053 11.2335 82.2996 11.0231 82.1391C10.7483 81.9524 10.9401 81.9426 11.6956 82.0864C12.0658 82.1614 12.3151 82.2876 12.2221 82.3626C12.1442 82.4312 12.508 82.4911 13.0381 82.4808C13.5746 82.4856 14.2273 82.5125 14.5202 82.5312C14.798 82.5562 15.0654 82.5145 15.1369 82.4308C15.2346 82.2826 16.329 82.3009 16.3929 82.452C16.4121 82.4974 16.2546 82.5462 16.054 82.5775C15.7588 82.5954 15.7262 82.6448 15.8982 82.7146C16.2487 82.8693 18.3521 82.7461 19.8767 82.4756C20.6056 82.3456 21.7419 82.1681 22.3865 82.0916C24.0553 81.8671 25.7804 81.5653 26.5808 81.3516C26.954 81.2651 27.2794 81.2344 27.305 81.2949C27.3881 81.4913 28.0158 81.3328 28.0083 81.1044C28.0026 80.9643 28.0694 80.9539 28.2391 81.0603C28.4088 81.1667 28.6331 81.1075 29.0156 80.8745C30.0271 80.2331 30.2713 80.0943 30.0399 80.2633C29.9016 80.3575 29.8254 80.5144 29.8573 80.5899C29.9212 80.7411 30.0206 80.6812 30.7194 80.1008C30.9054 79.9509 31.1885 79.7778 31.3827 79.7313C31.5855 79.6634 31.8739 79.292 32.1222 78.7417L32.5253 77.8409L31.5812 78.3469C31.2589 78.5048 30.8545 78.717 30.4913 78.9077C30.2559 79.0312 30.0378 79.1457 29.8705 79.2305C29.4211 79.4739 29.0759 79.5842 29.0009 79.4912C28.9259 79.3982 28.7748 79.4621 28.5085 79.7172C28.2812 79.938 27.8104 80.1727 27.3314 80.3039C26.1794 80.6128 25.7598 80.5051 26.8258 80.1614C27.4408 79.9726 27.5791 79.8785 27.3292 79.8773C27.131 79.872 26.6759 79.9753 26.3434 80.1159C25.9894 80.2477 25.3076 80.4469 24.831 80.5415C24.3328 80.6274 23.69 80.7923 23.3964 80.8986C22.5158 81.2174 22.3391 81.2209 22.7716 80.8955L23.1803 80.598L22.6822 80.6839C22.4084 80.7106 21.447 80.7963 20.5397 80.8414C19.6325 80.8865 18.8844 80.9712 18.867 81.0142C18.8059 81.1647 20.0851 81.283 20.9947 81.2013C21.4969 81.1672 21.9602 81.1673 22.0159 81.215C22.1984 81.3516 20.017 81.5434 17.6381 81.605C15.5393 81.655 11.737 81.5522 11.6859 81.4313C11.6731 81.4011 11.8481 81.3093 12.1027 81.2373L12.5363 81.1253L11.9871 81.0902C11.6941 81.0716 11.3146 81.143 11.1524 81.265C10.9751 81.3934 10.3503 81.3903 9.49127 81.2546C8.727 81.1324 8.05513 81.0601 7.97956 81.0921ZM3.91727 79.5316C4.49084 79.877 6.05071 80.322 5.96764 80.1256C5.95487 80.0953 5.36557 79.8813 4.66003 79.6451C3.72436 79.3281 3.51977 79.3077 3.91727 79.5316ZM6.83943 80.2914C7.08935 80.2927 7.28115 80.2828 7.26838 80.2526C7.2556 80.2224 7.03185 80.1566 6.76275 80.1101C6.49366 80.0635 6.30186 80.0733 6.3338 80.1489C6.36575 80.2245 6.5895 80.2902 6.83943 80.2914ZM32.0034 70.9179C32.1119 71.638 32.219 71.3434 32.1785 70.3629C32.1676 69.9578 32.1067 69.645 32.0311 69.677C31.88 69.7409 31.863 70.1222 32.0034 70.9179ZM15.5226 81.1098C14.5491 81.0404 13.7197 81.0169 13.7086 81.075C13.6761 81.1244 13.5122 81.1581 13.3227 81.1313C13.1245 81.126 12.9908 81.1469 13.01 81.1922C13.0483 81.2829 16.2299 81.4343 17.2406 81.3811C17.6027 81.3527 17.8573 81.2807 17.8254 81.2051C17.787 81.1145 17.6557 81.0987 17.5348 81.1498C17.4139 81.201 16.5176 81.1879 15.5226 81.1098ZM31.7152 75.2084C31.6945 76.3394 31.8555 76.4673 31.9191 75.3537C31.9408 74.8992 31.9019 74.4703 31.8398 74.4075C31.7927 74.3383 31.7327 74.7021 31.7152 75.2084ZM11.6628 83.0622C11.7267 83.2134 13.0083 83.2951 13.0693 83.1446C13.1019 83.0952 12.7834 83.016 12.3591 82.9816C11.9412 82.9623 11.6308 82.9867 11.6628 83.0622ZM14.8652 83.3473C15.107 83.2451 14.8705 83.1491 14.1748 83.1047C13.7871 83.0727 13.3971 83.0772 13.3367 83.1028C13.1919 83.1818 14.699 83.4176 14.8652 83.3473ZM18.8791 83.3606C18.9053 83.2961 18.8193 83.2612 18.6792 83.2669C18.6124 83.2774 18.496 83.2865 18.3602 83.2972C18.2244 83.3078 18.0692 83.32 17.9248 83.3365C17.7607 83.3433 17.5706 83.361 17.4132 83.3757C17.3019 83.3861 17.2068 83.3949 17.1488 83.3973C17.0087 83.4031 16.7797 83.5355 16.6454 83.6814C16.4396 83.9109 16.4611 83.9196 16.8047 83.721C17.0122 83.5798 17.2063 83.5333 17.2319 83.5938C17.2894 83.7298 18.8029 83.5175 18.8791 83.3606ZM32.4143 79.8118C32.8758 79.7236 33.2393 78.982 33.2023 78.1782C33.1914 77.7731 33.0967 77.2965 32.9835 77.1128C32.7441 76.7151 32.6156 77.0011 32.82 77.4847C33.0628 78.059 32.9295 78.8814 32.5068 79.3986C32.2272 79.7484 32.1987 79.8495 32.4143 79.8118ZM23.8509 83.1114C24.3345 82.9069 23.7365 82.7144 22.9216 82.8095C22.6512 82.8411 22.2251 82.8757 21.8134 82.9091C21.6048 82.926 21.4 82.9426 21.221 82.9584C19.9428 83.0534 19.7981 83.1324 20.8018 83.189C21.2563 83.2107 21.6719 83.2666 21.7364 83.2928C21.8073 83.334 22.0875 83.3225 22.3548 83.2807C22.5075 83.2457 22.6688 83.218 22.8014 83.1952C22.9085 83.1768 22.997 83.1616 23.0471 83.1484C23.1657 83.1339 23.3272 83.1368 23.3981 83.1781C23.4841 83.213 23.6847 83.1817 23.8509 83.1114Z" fill="black"/>
<path fill-rule="evenodd" clip-rule="evenodd" d="M19.5215 2.24655C19.6134 1.95829 19.6408 1.64386 19.6025 1.55318C19.5258 1.37182 19.2497 1.4351 19.2293 1.63968C19.231 1.72803 19.2577 2.00179 19.3059 2.28428L19.3767 2.78879L19.5215 2.24655ZM19.8136 3.31665C19.9234 3.32365 19.9456 3.20743 19.8753 3.04118C19.7986 2.85982 19.6806 2.74935 19.59 2.78768C19.5144 2.81963 19.4772 2.94226 19.5283 3.06317C19.5794 3.18408 19.7189 3.30326 19.8136 3.31665ZM19.6011 4.45753C19.7225 4.74468 19.7376 4.73829 19.7331 4.34829C19.7309 3.92167 19.624 3.7531 19.5193 4.01113C19.478 4.08203 19.5157 4.29767 19.6011 4.45753ZM20.1808 5.7445C20.16 5.61081 20.1437 5.4039 20.1659 5.28766C20.1816 5.15631 20.0572 5.03073 19.8916 4.97605C19.5667 4.88181 19.5661 5.00677 19.8543 5.56191C19.9333 5.70665 19.939 5.84673 19.8635 5.87868C19.7274 5.93618 19.8098 6.72084 20.039 7.85312C20.1424 8.30824 20.1639 8.31696 20.2605 7.95547C20.3111 7.73811 20.3083 7.43646 20.238 7.27021C20.1485 7.05862 20.2049 6.98134 20.4938 6.94829C20.7891 6.93035 20.8216 6.88095 20.6566 6.70131C20.5387 6.59084 20.4103 6.41355 20.3719 6.32287C20.3272 6.21707 20.2731 6.25774 20.2399 6.43209C20.2021 6.67968 20.1719 6.69246 20.076 6.46576C20.0185 6.32974 20.0366 6.16177 20.1145 6.09321C20.1773 6.03104 20.2169 5.8718 20.1808 5.7445ZM9.96531 12.4682C10.0217 12.3909 10.0962 12.1457 10.1015 11.9475C10.1556 11.4436 9.85104 11.608 9.7579 12.1462C9.67521 12.7512 9.82031 13.4737 10.0464 13.5028C10.1626 13.5249 10.1592 13.3482 10.0442 13.0762C9.94196 12.8344 9.8938 12.5519 9.96531 12.4682ZM12.5364 11.0071C12.5626 10.9426 12.4638 10.8775 12.311 10.8531C11.9471 10.7931 11.6234 10.9122 11.7 11.0935C11.7639 11.2446 12.4817 11.1728 12.5364 11.0071ZM10.6506 12.4457C10.7412 12.4074 10.7849 12.2999 10.7529 12.2243C10.7146 12.1336 10.6588 12.0859 10.6286 12.0987C10.5832 12.1179 10.5332 12.2103 10.5262 12.3201C10.5128 12.4149 10.575 12.4777 10.6506 12.4457ZM12.1839 12.1538C12.3653 12.0771 12.4368 11.9934 12.3508 11.9585C12.1142 11.8626 11.5359 12.0536 11.7119 12.1752C11.7892 12.2316 12.0177 12.2241 12.1839 12.1538ZM19.6481 9.37232C19.7986 9.43339 19.8422 9.32588 19.7789 9.04978C19.7348 8.81902 19.6279 8.65045 19.5523 8.68239C19.3408 8.77184 19.4115 9.27635 19.6481 9.37232ZM20.8667 9.97944C20.9231 9.90215 20.8877 9.64989 20.7855 9.40808C20.5044 8.74309 20.2626 8.84532 20.535 9.53181C20.6691 9.8492 20.8103 10.0567 20.8667 9.97944ZM14.8151 12.0568C15.6085 11.953 15.855 11.7776 15.1912 11.8088C14.3141 11.8411 14.0014 11.902 14.0526 12.0229C14.0845 12.0985 14.4292 12.1131 14.8151 12.0568ZM17.5262 11.0532C17.5523 10.9887 17.4623 10.9021 17.3094 10.8776C16.7927 10.7932 16.5439 11.0053 17.0153 11.1089C17.2692 11.1618 17.4913 11.1392 17.5262 11.0532ZM17.1789 12.0017C17.2998 11.9506 17.3283 11.8494 17.2511 11.793C17.1674 11.7215 17.036 11.7058 16.9454 11.7441C16.8698 11.7761 16.8349 11.8621 16.8732 11.9528C16.9052 12.0283 17.0429 12.0592 17.1789 12.0017ZM11.4469 14.3715C11.5719 14.3721 11.7015 14.2995 11.7277 14.235C11.769 14.1641 11.6591 14.1571 11.4992 14.2425C11.333 14.3128 11.3068 14.3773 11.4469 14.3715ZM18.1548 12.0345C18.2646 12.0415 18.3187 12.0008 18.2804 11.9101C18.2484 11.8346 18.1368 11.7392 18.027 11.7322C17.9323 11.7188 17.8631 11.7659 17.9014 11.8566C17.9334 11.9321 18.0601 12.0211 18.1548 12.0345ZM9.88715 17.8456C11.4954 17.6467 11.5559 17.6211 10.5975 17.5453C9.57223 17.48 8.755 17.6117 8.84445 17.8232C8.87639 17.8988 9.34602 17.9141 9.88715 17.8456ZM12.3563 17.4075C13.0009 17.3309 13.3642 17.0526 12.9272 16.988C12.6581 16.9414 11.6501 17.2963 11.7076 17.4323C11.7204 17.4625 12.007 17.4661 12.3563 17.4075ZM15.9267 17.341C16.2441 17.2068 15.9407 17.1213 15.277 17.1525C14.9817 17.1704 14.5766 17.1814 14.415 17.1784C14.2383 17.1819 14.1174 17.233 14.1366 17.2783C14.1941 17.4143 15.6332 17.4473 15.9267 17.341ZM26.7345 17.2433C27.0443 17.344 27.053 17.3224 26.7543 17.1637C26.591 17.0724 26.419 17.0026 26.3887 17.0154C26.2678 17.0665 26.3945 17.1555 26.7345 17.2433ZM26.3466 18.1377C26.6744 18.0704 26.7134 18.0361 26.5071 17.9273C26.2084 17.7686 25.7962 17.8894 25.8857 18.101C25.9176 18.1765 26.1222 18.1969 26.3466 18.1377ZM30.4449 19.8255C30.9667 20.1749 31.0638 20.1517 30.7123 19.7837C30.5751 19.6279 30.3473 19.5105 30.2439 19.5186C30.1038 19.5243 30.17 19.6389 30.4449 19.8255ZM31.7049 24.2809C31.7433 24.3716 31.8124 24.3245 31.8735 24.174C31.9259 24.045 31.9201 23.9049 31.8707 23.8723C31.8062 23.8461 31.7219 23.8996 31.7021 23.9792C31.6608 24.0501 31.6666 24.1902 31.7049 24.2809ZM30.7868 54.1343C30.8274 54.1884 30.8693 53.9925 30.8944 53.7147C30.9282 53.4154 30.9079 53.1567 30.8498 53.1457C30.7638 53.1108 30.7101 53.9529 30.7868 54.1343ZM31.8459 64.3931C31.9767 64.5338 32.0226 64.3896 31.9948 63.9026C31.9457 62.9436 31.6651 62.6168 31.6456 63.498C31.6502 63.888 31.7344 64.2977 31.8459 64.3931ZM3.91727 79.5316C4.49084 79.877 6.05071 80.322 5.96764 80.1256C5.95487 80.0953 5.36557 79.8813 4.66003 79.6451C3.72436 79.3281 3.51977 79.3077 3.91727 79.5316ZM6.83943 80.2914C7.08935 80.2927 7.28115 80.2828 7.26838 80.2526C7.2556 80.2224 7.03185 80.1566 6.76275 80.1101C6.49366 80.0635 6.30186 80.0733 6.3338 80.1489C6.36575 80.2245 6.5895 80.2902 6.83943 80.2914ZM11.6628 83.0622C11.7267 83.2134 13.0083 83.2951 13.0693 83.1446C13.1019 83.0952 12.7834 83.016 12.3591 82.9816C11.9412 82.9623 11.6308 82.9867 11.6628 83.0622ZM14.8652 83.3473C15.107 83.2451 14.8705 83.1491 14.1748 83.1047C13.7871 83.0727 13.3971 83.0772 13.3367 83.1028C13.1919 83.1818 14.699 83.4176 14.8652 83.3473Z" fill="black"/>
</svg>
