<svg width="44" height="44" viewBox="0 0 44 44" fill="none" xmlns="http://www.w3.org/2000/svg">
<path d="M43.0023 1.03332C41.7023 -0.266683 39.6023 -0.266683 38.3023 1.03332L22.0023 17.3L5.70235 0.999983C4.40235 -0.300018 2.30234 -0.300018 1.00234 0.999983C-0.297656 2.29998 -0.297656 4.39998 1.00234 5.69998L17.3023 22L1.00234 38.3C-0.297656 39.6 -0.297656 41.7 1.00234 43C2.30234 44.3 4.40235 44.3 5.70235 43L22.0023 26.7L38.3023 43C39.6023 44.3 41.7023 44.3 43.0023 43C44.3023 41.7 44.3023 39.6 43.0023 38.3L26.7023 22L43.0023 5.69998C44.269 4.43332 44.269 2.29998 43.0023 1.03332Z" fill="#E7E7E7"/>
</svg>
