<svg width="44" height="44" viewBox="0 0 44 44" fill="none" xmlns="http://www.w3.org/2000/svg">
<path d="M43.0023 1.03336C41.7023 -0.266641 39.6023 -0.266641 38.3023 1.03336L22.0023 17.3L5.70235 1.00002C4.40235 -0.299976 2.30234 -0.299976 1.00234 1.00002C-0.297656 2.30002 -0.297656 4.40003 1.00234 5.70003L17.3023 22L1.00234 38.3C-0.297656 39.6 -0.297656 41.7 1.00234 43C2.30234 44.3 4.40235 44.3 5.70235 43L22.0023 26.7L38.3023 43C39.6023 44.3 41.7023 44.3 43.0023 43C44.3023 41.7 44.3023 39.6 43.0023 38.3L26.7023 22L43.0023 5.70003C44.269 4.43336 44.269 2.30003 43.0023 1.03336Z" fill="black"/>
</svg>
