<svg width="1052" height="461" viewBox="0 0 1052 461" fill="none" xmlns="http://www.w3.org/2000/svg">
<rect x="1.84595" y="305.809" width="163" height="15.2293" transform="rotate(6.96252 1.84595 305.809)" fill="#E7E7E7"/>
<rect x="649.466" y="300.758" width="66.6383" height="9.19909" transform="rotate(-24.1422 649.466 300.758)" fill="#E7E7E7"/>
<rect x="310.881" y="52" width="70.1966" height="15.2293" transform="rotate(65.7045 310.881 52)" fill="#E7E7E7"/>
<path d="M212.504 173.342L164.98 63.1885L185.82 56.3792L212.504 173.342Z" fill="#E7E7E7"/>
<path d="M480.775 330.364L369.279 286.083L379.2 266.531L480.775 330.364Z" fill="#E7E7E7"/>
<path d="M338.442 310.082L270.604 409.027L253.73 395.03L338.442 310.082Z" fill="#E7E7E7"/>
<path d="M293.217 225.667L367.114 131.16L383.079 146.187L293.217 225.667Z" fill="#E7E7E7"/>
<path d="M580.217 109.667L654.114 15.1603L670.079 30.1866L580.217 109.667Z" fill="#E7E7E7"/>
<path d="M791.675 342.217L886.182 416.114L871.156 432.079L791.675 342.217Z" fill="#E7E7E7"/>
<path d="M929.975 108.867L1006.45 16.431L1021.99 31.8913L929.975 108.867Z" fill="#E7E7E7"/>
<path d="M792.368 147.099L706.228 63.6002L722.862 49.3181L792.368 147.099Z" fill="#E7E7E7"/>
<path d="M916.81 356.11L949.506 350.774L913.463 389.069L916.81 356.11Z" fill="#E7E7E7"/>
</svg>
